<svg width="31" height="35" viewBox="0 0 31 35" fill="none" xmlns="http://www.w3.org/2000/svg">
<g clip-path="url(#clip0_401_6177)">
<path d="M8.85714 8.75V13.125H22.1429V8.75C22.1429 5.12695 19.1674 2.1875 15.5 2.1875C11.8326 2.1875 8.85714 5.12695 8.85714 8.75ZM6.64286 13.125V8.75C6.64286 3.91699 10.6078 0 15.5 0C20.3922 0 24.3571 3.91699 24.3571 8.75V13.125H25.4643C28.5228 13.125 31 15.5723 31 18.5938V29.5312C31 32.5527 28.5228 35 25.4643 35H5.53571C2.47723 35 0 32.5527 0 29.5312V18.5938C0 15.5723 2.47723 13.125 5.53571 13.125H6.64286ZM2.21429 18.5938V29.5312C2.21429 31.3428 3.70201 32.8125 5.53571 32.8125H25.4643C27.298 32.8125 28.7857 31.3428 28.7857 29.5312V18.5938C28.7857 16.7822 27.298 15.3125 25.4643 15.3125H5.53571C3.70201 15.3125 2.21429 16.7822 2.21429 18.5938Z" fill="white"/>
</g>
<defs>
<clipPath id="clip0_401_6177">
<rect width="31" height="35" fill="white"/>
</clipPath>
</defs>
</svg>
