<svg width="640" height="640" viewBox="0 0 640 640" fill="none" xmlns="http://www.w3.org/2000/svg">
<path d="M128 128C131.152 128 134.273 128.621 137.184 129.827C140.096 131.033 142.742 132.801 144.971 135.029C147.199 137.258 148.967 139.904 150.173 142.816C151.379 145.727 152 148.848 152 152C152 155.152 151.379 158.273 150.173 161.184C148.967 164.096 147.199 166.742 144.971 168.971C142.742 171.199 140.096 172.967 137.184 174.173C134.273 175.379 131.152 176 128 176C124.848 176 121.727 175.379 118.816 174.173C115.904 172.967 113.258 171.199 111.029 168.971C108.801 166.742 107.033 164.096 105.827 161.184C104.621 158.273 104 155.152 104 152C104 148.848 104.621 145.727 105.827 142.816C107.033 139.904 108.801 137.258 111.029 135.029C113.258 132.801 115.904 131.033 118.816 129.827C121.727 128.621 124.848 128 128 128ZM128 208C135.354 208 142.636 206.552 149.43 203.737C156.225 200.923 162.398 196.798 167.598 191.598C172.798 186.398 176.923 180.225 179.737 173.43C182.552 166.636 184 159.354 184 152C184 144.646 182.552 137.364 179.737 130.57C176.923 123.775 172.798 117.602 167.598 112.402C162.398 107.202 156.225 103.077 149.43 100.263C142.636 97.4485 135.354 96 128 96C120.646 96 113.364 97.4485 106.57 100.263C99.7755 103.077 93.6021 107.202 88.402 112.402C83.2019 117.602 79.077 123.775 76.2627 130.57C73.4485 137.364 72 144.646 72 152C72 159.354 73.4485 166.636 76.2627 173.43C79.077 180.225 83.2019 186.398 88.402 191.598C93.6021 196.798 99.7755 200.923 106.57 203.737C113.364 206.552 120.646 208 128 208ZM0 344C0 387.3 26.4 424.4 64 440V488C64 501.3 74.7 512 88 512H168C181.3 512 192 501.3 192 488V448C192 439.2 184.8 432 176 432C167.2 432 160 439.2 160 448V480H96V272.4C98.6 272.1 101.3 272 104 272H152C161.3 272 170.1 273.7 178.2 276.9C186.4 280.1 195.7 276 198.9 267.8C202.1 259.6 198 250.3 189.8 247.1C178.1 242.5 165.3 240 152 240H104C46.6 240 0 286.6 0 344ZM64 403.9C44.7 391 32 368.9 32 344C32 319 44.7 297 64 284.1V403.9ZM512 128C515.152 128 518.273 128.621 521.184 129.827C524.096 131.033 526.742 132.801 528.971 135.029C531.199 137.258 532.967 139.904 534.173 142.816C535.379 145.727 536 148.848 536 152C536 155.152 535.379 158.273 534.173 161.184C532.967 164.096 531.199 166.742 528.971 168.971C526.742 171.199 524.096 172.967 521.184 174.173C518.273 175.379 515.152 176 512 176C508.848 176 505.727 175.379 502.816 174.173C499.904 172.967 497.258 171.199 495.029 168.971C492.801 166.742 491.033 164.096 489.827 161.184C488.621 158.273 488 155.152 488 152C488 148.848 488.621 145.727 489.827 142.816C491.033 139.904 492.801 137.258 495.029 135.029C497.258 132.801 499.904 131.033 502.816 129.827C505.727 128.621 508.848 128 512 128ZM512 208C519.354 208 526.636 206.552 533.43 203.737C540.225 200.923 546.398 196.798 551.598 191.598C556.798 186.398 560.923 180.225 563.737 173.43C566.552 166.636 568 159.354 568 152C568 144.646 566.552 137.364 563.737 130.57C560.923 123.775 556.798 117.602 551.598 112.402C546.398 107.202 540.225 103.077 533.43 100.263C526.636 97.4485 519.354 96 512 96C504.646 96 497.364 97.4485 490.57 100.263C483.775 103.077 477.602 107.202 472.402 112.402C467.202 117.602 463.077 123.775 460.263 130.57C457.448 137.364 456 144.646 456 152C456 159.354 457.448 166.636 460.263 173.43C463.077 180.225 467.202 186.398 472.402 191.598C477.602 196.798 483.775 200.923 490.57 203.737C497.364 206.552 504.646 208 512 208ZM640 344C640 286.6 593.4 240 536 240H488C474.7 240 461.9 242.5 450.2 247.1C442 250.3 437.9 259.6 441.1 267.8C444.3 276 453.6 280.1 461.8 276.9C469.9 273.7 478.7 272 488 272H536C538.7 272 541.4 272.1 544 272.4V480H480V448C480 439.2 472.8 432 464 432C455.2 432 448 439.2 448 448V488C448 501.3 458.7 512 472 512H552C565.3 512 576 501.3 576 488V440C613.6 424.3 640 387.3 640 344ZM576 403.9V284.1C595.3 297 608 319 608 344C608 368.9 595.3 391 576 403.9ZM288 160C288 151.513 291.371 143.374 297.373 137.373C303.374 131.371 311.513 128 320 128C328.487 128 336.626 131.371 342.627 137.373C348.629 143.374 352 151.513 352 160C352 168.487 348.629 176.626 342.627 182.627C336.626 188.629 328.487 192 320 192C311.513 192 303.374 188.629 297.373 182.627C291.371 176.626 288 168.487 288 160ZM384 160C384 143.026 377.257 126.747 365.255 114.745C353.252 102.743 336.974 96 320 96C303.026 96 286.748 102.743 274.745 114.745C262.743 126.747 256 143.026 256 160C256 176.974 262.743 193.253 274.745 205.255C286.748 217.257 303.026 224 320 224C336.974 224 353.252 217.257 365.255 205.255C377.257 193.253 384 176.974 384 160ZM304 256C246.6 256 200 302.6 200 360C200 400.1 222.7 434.9 256 452.3V520C256 533.3 266.7 544 280 544H360C373.3 544 384 533.3 384 520V452.3C417.3 435 440 400.2 440 360C440 302.6 393.4 256 336 256H304ZM256 306.3V413.6C241.3 400.4 232 381.2 232 359.9C232 338.6 241.3 319.4 256 306.2V306.3ZM288 512V289.8C293.1 288.6 298.5 288 304 288H336C341.5 288 346.9 288.6 352 289.8V512H288ZM384 413.7V306.4C398.7 319.6 408 338.7 408 360.1C408 381.4 398.7 400.6 384 413.8V413.7Z" fill="white"/>
</svg>
