<svg width="24" height="28" viewBox="0 0 24 28" fill="none" xmlns="http://www.w3.org/2000/svg">
<path d="M10.5 26.5H21C21.8297 26.5 22.5 25.8297 22.5 25V14.5C22.5 13.6703 21.8297 13 21 13H18V11.5H21C22.6547 11.5 24 12.8453 24 14.5V25C24 26.6547 22.6547 28 21 28H10.5C8.84531 28 7.5 26.6547 7.5 25V22H9V25C9 25.8297 9.67031 26.5 10.5 26.5ZM3 19H13.5C14.3297 19 15 18.3297 15 17.5V7C15 6.17031 14.3297 5.5 13.5 5.5H3C2.17031 5.5 1.5 6.17031 1.5 7V17.5C1.5 18.3297 2.17031 19 3 19ZM13.5 20.5H3C1.34531 20.5 0 19.1547 0 17.5V7C0 5.34531 1.34531 4 3 4H13.5C15.1547 4 16.5 5.34531 16.5 7V17.5C16.5 19.1547 15.1547 20.5 13.5 20.5ZM12 16V8.5H4.5V16H12ZM13.5 16C13.5 16.8297 12.8297 17.5 12 17.5H4.5C3.67031 17.5 3 16.8297 3 16V8.5C3 7.67031 3.67031 7 4.5 7H12C12.8297 7 13.5 7.67031 13.5 8.5V16Z" fill="white"/>
</svg>
