<svg width="25" height="25" viewBox="0 0 25 25" fill="none" xmlns="http://www.w3.org/2000/svg">
<g clip-path="url(#clip0_1073_3216)">
<path d="M13.8333 4.83333C14.2 4.83333 14.5 5.13333 14.5 5.5V8.16667C14.5 8.53333 14.2 8.83333 13.8333 8.83333H13.1667H11.8333H11.1667C10.8 8.83333 10.5 8.53333 10.5 8.16667V5.5C10.5 5.13333 10.8 4.83333 11.1667 4.83333H13.8333ZM11.1667 10.1667H11.8333V12.1667H5.16667C4.0625 12.1667 3.16667 13.0625 3.16667 14.1667V15.5H2.5C1.39583 15.5 0.5 16.3958 0.5 17.5V20.1667C0.5 21.2708 1.39583 22.1667 2.5 22.1667H5.16667C6.27083 22.1667 7.16667 21.2708 7.16667 20.1667V17.5C7.16667 16.3958 6.27083 15.5 5.16667 15.5H4.5V14.1667C4.5 13.8 4.8 13.5 5.16667 13.5H11.8333V15.5H11.1667C10.0625 15.5 9.16667 16.3958 9.16667 17.5V20.1667C9.16667 21.2708 10.0625 22.1667 11.1667 22.1667H13.8333C14.9375 22.1667 15.8333 21.2708 15.8333 20.1667V17.5C15.8333 16.3958 14.9375 15.5 13.8333 15.5H13.1667V13.5H19.8333C20.2 13.5 20.5 13.8 20.5 14.1667V15.5H19.8333C18.7292 15.5 17.8333 16.3958 17.8333 17.5V20.1667C17.8333 21.2708 18.7292 22.1667 19.8333 22.1667H22.5C23.6042 22.1667 24.5 21.2708 24.5 20.1667V17.5C24.5 16.3958 23.6042 15.5 22.5 15.5H21.8333V14.1667C21.8333 13.0625 20.9375 12.1667 19.8333 12.1667H13.1667V10.1667H13.8333C14.9375 10.1667 15.8333 9.27083 15.8333 8.16667V5.5C15.8333 4.39583 14.9375 3.5 13.8333 3.5H11.1667C10.0625 3.5 9.16667 4.39583 9.16667 5.5V8.16667C9.16667 9.27083 10.0625 10.1667 11.1667 10.1667ZM2.5 16.8333H5.16667C5.53333 16.8333 5.83333 17.1333 5.83333 17.5V20.1667C5.83333 20.5333 5.53333 20.8333 5.16667 20.8333H2.5C2.13333 20.8333 1.83333 20.5333 1.83333 20.1667V17.5C1.83333 17.1333 2.13333 16.8333 2.5 16.8333ZM11.1667 16.8333H13.8333C14.2 16.8333 14.5 17.1333 14.5 17.5V20.1667C14.5 20.5333 14.2 20.8333 13.8333 20.8333H11.1667C10.8 20.8333 10.5 20.5333 10.5 20.1667V17.5C10.5 17.1333 10.8 16.8333 11.1667 16.8333ZM19.8333 16.8333H22.5C22.8667 16.8333 23.1667 17.1333 23.1667 17.5V20.1667C23.1667 20.5333 22.8667 20.8333 22.5 20.8333H19.8333C19.4667 20.8333 19.1667 20.5333 19.1667 20.1667V17.5C19.1667 17.1333 19.4667 16.8333 19.8333 16.8333Z" fill="white"/>
</g>
<defs>
<clipPath id="clip0_1073_3216">
<rect width="24" height="24" fill="white" transform="translate(0.5 0.5)"/>
</clipPath>
</defs>
</svg>
