<svg width="25" height="24" viewBox="0 0 25 24" fill="none" xmlns="http://www.w3.org/2000/svg">
<path d="M10.75 2.375H8C7.23945 2.375 6.625 2.98945 6.625 3.75V5.8125H8C8.37813 5.8125 8.6875 6.12187 8.6875 6.5C8.6875 6.87813 8.37813 7.1875 8 7.1875H6.625V11.3125H8C8.37813 11.3125 8.6875 11.6219 8.6875 12C8.6875 12.3781 8.37813 12.6875 8 12.6875H6.625V16.8125H8C8.37813 16.8125 8.6875 17.1219 8.6875 17.5C8.6875 17.8781 8.37813 18.1875 8 18.1875H6.625V20.25C6.625 21.0105 7.23945 21.625 8 21.625H10.75V2.375ZM12.125 21.625H20.375C21.1355 21.625 21.75 21.0105 21.75 20.25V3.75C21.75 2.98945 21.1355 2.375 20.375 2.375H12.125V21.625ZM11.4375 23H8C6.4832 23 5.25 21.7668 5.25 20.25V18.1875H3.1875C2.80937 18.1875 2.5 17.8781 2.5 17.5C2.5 17.1219 2.80937 16.8125 3.1875 16.8125H5.25V12.6875H3.1875C2.80937 12.6875 2.5 12.3781 2.5 12C2.5 11.6219 2.80937 11.3125 3.1875 11.3125H5.25V7.1875H3.1875C2.80937 7.1875 2.5 6.87813 2.5 6.5C2.5 6.12187 2.80937 5.8125 3.1875 5.8125H5.25V3.75C5.25 2.2332 6.4832 1 8 1H11.4375H20.375C21.8918 1 23.125 2.2332 23.125 3.75V20.25C23.125 21.7668 21.8918 23 20.375 23H11.4375Z" fill="white"/>
</svg>
