<svg width="24" height="32" viewBox="0 0 24 32" fill="none" xmlns="http://www.w3.org/2000/svg">
<path d="M9.77865 5.50441C10.8652 5.50441 11.9412 5.71843 12.9451 6.13425C13.9489 6.55007 14.8611 7.15954 15.6294 7.92788C16.3978 8.69621 17.0072 9.60836 17.423 10.6122C17.8389 11.6161 18.0529 12.6921 18.0529 13.7786C18.0529 14.8652 17.8389 15.9412 17.423 16.9451C17.0072 17.9489 16.3978 18.8611 15.6294 19.6294C14.8611 20.3978 13.9489 21.0072 12.9451 21.423C11.9412 21.8389 10.8652 22.0529 9.77865 22.0529C8.69206 22.0529 7.61611 21.8389 6.61223 21.423C5.60836 21.0072 4.69621 20.3978 3.92788 19.6294C3.15954 18.8611 2.55007 17.9489 2.13425 16.9451C1.71843 15.9412 1.50441 14.8652 1.50441 13.7786C1.50441 12.6921 1.71843 11.6161 2.13425 10.6122C2.55007 9.60836 3.15954 8.69621 3.92788 7.92788C4.69621 7.15954 5.60836 6.55007 6.61223 6.13425C7.61611 5.71843 8.69206 5.50441 9.77865 5.50441ZM9.77865 23.5573C12.2092 23.5573 14.4329 22.6735 16.1395 21.2067L22.9375 28L24 26.9375L17.2067 20.1395C18.6735 18.4282 19.5573 16.2045 19.5573 13.7786C19.5573 8.37689 15.1804 4 9.77865 4C4.37689 4 0 8.37689 0 13.7786C0 19.1804 4.37689 23.5573 9.77865 23.5573ZM6.01763 14.5309V17.5397V18.2919H7.52204V17.5397V14.5309V13.7786H6.01763V14.5309ZM9.02644 10.0176V17.5397V18.2919H10.5309V17.5397V10.0176V9.26543H9.02644V10.0176ZM12.0353 13.0264V17.5397V18.2919H13.5397V17.5397V13.0264V12.2742H12.0353V13.0264Z" fill="white"/>
</svg>
