<svg width="63" height="63" viewBox="0 0 63 63" fill="none" xmlns="http://www.w3.org/2000/svg">
<path opacity="0.4" d="M4.875 3.875C7.01836 3.875 8.75 5.60664 8.75 7.75V48.4375C8.75 49.5031 9.62187 50.375 10.6875 50.375H59.125C61.2684 50.375 63 52.1066 63 54.25C63 56.3934 61.2684 58.125 59.125 58.125H10.6875C5.33516 58.125 1 53.7898 1 48.4375V7.75C1 5.60664 2.73164 3.875 4.875 3.875Z" fill="#2A80BF"/>
<path d="M50.2365 29.8617L54.16 33.7852C55.9885 35.6137 59.1248 34.318 59.1248 31.7266V18.4062C59.1248 16.7957 57.8291 15.5 56.2186 15.5H42.8861C40.2947 15.5 38.999 18.6363 40.8275 20.4648L44.751 24.3883L37.8123 31.327L28.924 22.4387C27.4104 20.925 24.9521 20.925 23.4385 22.4387L13.751 32.1262C12.2373 33.6398 12.2373 36.098 13.751 37.6117C15.2646 39.1254 17.7229 39.1254 19.2365 37.6117L26.1873 30.673L35.0756 39.5613C36.5893 41.075 39.0475 41.075 40.5611 39.5613L50.2486 29.8738L50.2365 29.8617Z" fill="#2A80BF"/>
</svg>
