<svg width="67" height="67" viewBox="0 0 67 67" fill="none" xmlns="http://www.w3.org/2000/svg">
<g clip-path="url(#clip0_1555_2410)">
<path opacity="0.4" d="M32.0762 55.4431L46.4184 47.1623C46.7638 46.9634 47.0884 46.7331 47.3815 46.4714C49.4124 44.6708 49.9673 41.6348 48.554 39.1956L34.0024 13.9973C35.0074 13.1913 36.2951 12.6992 37.6874 12.6992H61.1374C64.3723 12.6992 66.9999 15.3269 66.9999 18.5617V53.7367C66.9999 56.9716 64.3723 59.5992 61.1374 59.5992H37.6874C35.0388 59.5992 32.809 57.8509 32.0762 55.4431Z" fill="#2A80BF"/>
<path d="M0.785068 26.4045C-0.82712 23.6198 0.125536 20.05 2.92069 18.4378L23.1044 6.78604C25.8891 5.17386 29.459 6.12651 31.0712 8.92167L48.554 39.2078C50.1662 41.9925 49.203 45.5623 46.4183 47.1745L26.2241 58.8157C23.4394 60.4279 19.8696 59.4648 18.2574 56.6801L0.785068 26.4045Z" fill="#2A80BF"/>
</g>
<defs>
<clipPath id="clip0_1555_2410">
<rect width="67" height="53.6" fill="white" transform="translate(0 6)"/>
</clipPath>
</defs>
</svg>
