<svg width="512" height="512" viewBox="0 0 512 512" fill="none" xmlns="http://www.w3.org/2000/svg">
<path d="M377.4 45.3001L310.6 112L400 201.4L466.7 134.7C479.2 122.2 479.2 101.9 466.7 89.4001L422.6 45.3001C410.1 32.8001 389.8 32.8001 377.3 45.3001H377.4ZM279.7 97.7001L354.8 22.6001C379.8 -2.3999 420.3 -2.3999 445.3 22.6001L489.4 66.7001C514.4 91.7001 514.4 132.2 489.4 157.2L414.3 232.3L376.8 370C369.5 396.6 349.1 417.6 322.6 425.6L47.4 508.1C35.1 511.8 21.7 508.4 12.7 499.3C3.7 490.2 0.200003 476.9 3.9 464.6L86.5 189.4C94.4 163 115.4 142.5 142.1 135.2L279.7 97.7001ZM283.3 129.9L150.5 166.1C134.5 170.5 121.9 182.7 117.2 198.6L42.7 446.7L152.9 336.5C147.3 327 144 315.9 144 304C144 268.7 172.7 240 208 240C243.3 240 272 268.7 272 304C272 339.3 243.3 368 208 368C196.1 368 185 364.8 175.5 359.1L65.3 469.3L313.4 394.9C329.3 390.1 341.6 377.5 345.9 361.6L382.1 228.8L283.2 129.9H283.3ZM208 272C199.513 272 191.374 275.372 185.373 281.373C179.371 287.374 176 295.513 176 304C176 312.487 179.371 320.626 185.373 326.628C191.374 332.629 199.513 336 208 336C216.487 336 224.626 332.629 230.627 326.628C236.629 320.626 240 312.487 240 304C240 295.513 236.629 287.374 230.627 281.373C224.626 275.372 216.487 272 208 272Z" fill="white"/>
</svg>
