<svg width="640" height="640" viewBox="0 0 640 640" fill="none" xmlns="http://www.w3.org/2000/svg">
<path d="M234.417 53.9343C246.71 53.9343 258.882 56.4899 270.239 61.4552C281.596 66.4205 291.915 73.6983 300.607 82.873C309.3 92.0477 316.195 102.94 320.899 114.927C325.603 126.914 328.024 139.762 328.024 152.737C328.024 165.712 325.603 178.56 320.899 190.547C316.195 202.535 309.3 213.427 300.607 222.601C291.915 231.776 281.596 239.054 270.239 244.019C258.882 248.984 246.71 251.54 234.417 251.54C222.124 251.54 209.952 248.984 198.595 244.019C187.238 239.054 176.919 231.776 168.227 222.601C159.534 213.427 152.639 202.535 147.935 190.547C143.231 178.56 140.81 165.712 140.81 152.737C140.81 139.762 143.231 126.914 147.935 114.927C152.639 102.94 159.534 92.0477 168.227 82.873C176.919 73.6983 187.238 66.4205 198.595 61.4552C209.952 56.4899 222.124 53.9343 234.417 53.9343ZM234.417 284.474C267.519 284.474 299.265 270.595 322.671 245.889C346.077 221.184 359.227 187.676 359.227 152.737C359.227 117.798 346.077 84.2904 322.671 59.5849C299.265 34.8794 267.519 21 234.417 21C201.315 21 169.57 34.8794 146.163 59.5849C122.757 84.2904 109.607 117.798 109.607 152.737C109.607 187.676 122.757 221.184 146.163 245.889C169.57 270.595 201.315 284.474 234.417 284.474ZM189.856 366.81H278.978C285.316 366.81 291.557 367.222 297.699 368.045C297.114 362.179 296.822 356.312 296.822 350.343C296.822 345.094 297.017 339.948 297.504 334.905C291.459 334.184 285.219 333.876 278.978 333.876H189.856C93.8111 333.876 16 416.006 16 517.381C16 534.26 28.9685 547.949 44.9598 547.949H423.874C439.866 547.949 452.834 534.26 452.834 517.381C452.834 516.558 452.834 515.838 452.834 515.014H421.632H203.215H47.2024C48.3725 432.987 111.752 366.81 189.856 366.81ZM452.834 251.643C477.66 251.643 501.47 262.052 519.024 280.582C536.579 299.111 546.441 324.242 546.441 350.446C546.441 376.65 536.579 401.781 519.024 420.31C501.47 438.839 477.66 449.249 452.834 449.249C440.541 449.249 428.369 446.693 417.012 441.728C405.655 436.762 395.336 429.485 386.644 420.31C377.951 411.135 371.056 400.243 366.352 388.256C361.648 376.269 359.227 363.421 359.227 350.446C359.227 337.471 361.648 324.623 366.352 312.636C371.056 300.648 377.951 289.756 386.644 280.582C395.336 271.407 405.655 264.129 417.012 259.164C428.369 254.199 440.541 251.643 452.834 251.643ZM452.834 482.183C481.696 482.183 508.218 471.891 529.378 454.498L613.429 543.214C619.475 549.595 629.42 549.595 635.466 543.214C641.511 536.833 641.511 526.335 635.466 519.954L551.414 431.238C567.893 409.007 577.644 380.91 577.644 350.549C577.644 277.785 521.772 218.812 452.834 218.812C383.896 218.812 328.024 277.785 328.024 350.549C328.024 423.313 383.896 482.286 452.834 482.286V482.183Z" fill="white"/>
</svg>
