<svg width="24" height="32" viewBox="0 0 24 32" fill="none" xmlns="http://www.w3.org/2000/svg">
<g clip-path="url(#clip0_1124_8530)">
<path d="M22.5 16.1078C22.4953 16.7687 21.8531 17.5 20.7141 17.5H16.125C14.0531 17.5 12.375 19.1781 12.375 21.25C12.375 21.5125 12.4031 21.775 12.4547 22.0281C12.5906 22.675 12.8719 23.3078 13.0734 23.7625C13.1109 23.8422 13.1438 23.9172 13.1719 23.9875C13.4062 24.5312 13.4953 24.8406 13.4953 25.0891C13.4953 25.9891 12.9188 26.4766 12.4313 26.4953C12.2859 26.5 12.1406 26.5047 11.9953 26.5047C6.20156 26.5 1.5 21.7984 1.5 16C1.5 10.2016 6.20156 5.5 12 5.5C17.7984 5.5 22.5 10.2016 22.5 16C22.5 16.0375 22.5 16.075 22.5 16.1078ZM24 16.1219C24 16.0797 24 16.0375 24 15.9953C24 9.37187 18.6281 4 12 4C5.37188 4 0 9.37188 0 16C0 22.6281 5.37188 28 12 28C12.1641 28 12.3328 27.9953 12.4969 27.9906C13.9875 27.9297 15 26.5797 15 25.0844C15 24.4047 14.7141 23.7578 14.4328 23.1156C14.2312 22.6562 14.025 22.1922 13.9266 21.7141C13.8938 21.5641 13.8797 21.4094 13.8797 21.25C13.8797 20.0078 14.8875 19 16.1297 19H20.7188C22.4297 19 23.9859 17.8375 24.0047 16.1266L24 16.1219ZM7.125 16C7.125 15.7016 7.00647 15.4155 6.7955 15.2045C6.58452 14.9935 6.29837 14.875 6 14.875C5.70163 14.875 5.41548 14.9935 5.2045 15.2045C4.99353 15.4155 4.875 15.7016 4.875 16C4.875 16.2984 4.99353 16.5845 5.2045 16.7955C5.41548 17.0065 5.70163 17.125 6 17.125C6.29837 17.125 6.58452 17.0065 6.7955 16.7955C7.00647 16.5845 7.125 16.2984 7.125 16ZM7.5 12.625C7.79837 12.625 8.08452 12.5065 8.2955 12.2955C8.50647 12.0845 8.625 11.7984 8.625 11.5C8.625 11.2016 8.50647 10.9155 8.2955 10.7045C8.08452 10.4935 7.79837 10.375 7.5 10.375C7.20163 10.375 6.91548 10.4935 6.7045 10.7045C6.49353 10.9155 6.375 11.2016 6.375 11.5C6.375 11.7984 6.49353 12.0845 6.7045 12.2955C6.91548 12.5065 7.20163 12.625 7.5 12.625ZM13.125 10C13.125 9.70163 13.0065 9.41548 12.7955 9.2045C12.5845 8.99353 12.2984 8.875 12 8.875C11.7016 8.875 11.4155 8.99353 11.2045 9.2045C10.9935 9.41548 10.875 9.70163 10.875 10C10.875 10.2984 10.9935 10.5845 11.2045 10.7955C11.4155 11.0065 11.7016 11.125 12 11.125C12.2984 11.125 12.5845 11.0065 12.7955 10.7955C13.0065 10.5845 13.125 10.2984 13.125 10ZM16.5 12.625C16.7984 12.625 17.0845 12.5065 17.2955 12.2955C17.5065 12.0845 17.625 11.7984 17.625 11.5C17.625 11.2016 17.5065 10.9155 17.2955 10.7045C17.0845 10.4935 16.7984 10.375 16.5 10.375C16.2016 10.375 15.9155 10.4935 15.7045 10.7045C15.4935 10.9155 15.375 11.2016 15.375 11.5C15.375 11.7984 15.4935 12.0845 15.7045 12.2955C15.9155 12.5065 16.2016 12.625 16.5 12.625Z" fill="white"/>
</g>
<defs>
<clipPath id="clip0_1124_8530">
<rect width="24" height="32" fill="white"/>
</clipPath>
</defs>
</svg>
