<svg width="63" height="63" viewBox="0 0 63 63" fill="none" xmlns="http://www.w3.org/2000/svg">
<path opacity="0.4" d="M37.4062 23.625C34.1455 23.625 31.5 26.2705 31.5 29.5312V33.4688C31.5 36.7295 34.1455 39.375 37.4062 39.375H57.0938C60.3545 39.375 63 36.7295 63 33.4688V29.5312C63 26.2705 60.3545 23.625 57.0938 23.625H37.4062ZM5.90625 33.4688C2.64551 33.4688 0 36.1143 0 39.375V53.1562C0 56.417 2.64551 59.0625 5.90625 59.0625H21.6562C24.917 59.0625 27.5625 56.417 27.5625 53.1562V39.375C27.5625 36.1143 24.917 33.4688 21.6562 33.4688H5.90625Z" fill="white"/>
<path d="M0 9.84375C0 6.58301 2.64551 3.9375 5.90625 3.9375H21.6562C24.917 3.9375 27.5625 6.58301 27.5625 9.84375V23.625C27.5625 26.8857 24.917 29.5312 21.6562 29.5312H5.90625C2.64551 29.5312 0 26.8857 0 23.625V9.84375ZM31.5 9.84375C31.5 6.58301 34.1455 3.9375 37.4062 3.9375H57.0938C60.3545 3.9375 63 6.58301 63 9.84375V13.7812C63 17.042 60.3545 19.6875 57.0938 19.6875H37.4062C34.1455 19.6875 31.5 17.042 31.5 13.7812V9.84375ZM37.4062 43.3125H57.0938C60.3545 43.3125 63 45.958 63 49.2188V53.1562C63 56.417 60.3545 59.0625 57.0938 59.0625H37.4062C34.1455 59.0625 31.5 56.417 31.5 53.1562V49.2188C31.5 45.958 34.1455 43.3125 37.4062 43.3125Z" fill="white"/>
</svg>
