<svg width="24" height="32" viewBox="0 0 24 32" fill="none" xmlns="http://www.w3.org/2000/svg">
<path d="M14.9975 8.5C14.9975 7.70435 14.6814 6.94129 14.1188 6.37868C13.5562 5.81607 12.7931 5.5 11.9975 5.5C11.2018 5.5 10.4388 5.81607 9.87617 6.37868C9.31357 6.94129 8.9975 7.70435 8.9975 8.5C8.9975 9.29565 9.31357 10.0587 9.87617 10.6213C10.4388 11.1839 11.2018 11.5 11.9975 11.5C12.7931 11.5 13.5562 11.1839 14.1188 10.6213C14.6814 10.0587 14.9975 9.29565 14.9975 8.5ZM13.9803 12.5406C13.3803 12.8359 12.71 13 11.9975 13C11.285 13 10.6147 12.8359 10.0147 12.5406L6.66312 18.4094C8.25218 19.2625 10.0662 19.75 11.9975 19.75C16.16 19.75 19.7975 17.4906 21.7428 14.125C21.9491 13.7688 22.4084 13.6422 22.7694 13.8531C23.1303 14.0641 23.2522 14.5188 23.0412 14.8797C20.8381 18.6906 16.7178 21.2547 11.9975 21.2547C9.79437 21.2547 7.72718 20.6969 5.91781 19.7172L1.39906 27.6203C1.19281 27.9812 0.733432 28.1031 0.377182 27.9016C0.0209324 27.7 -0.10563 27.2359 0.0959324 26.8797L4.64281 18.9203C3.13812 17.8562 1.87718 16.4781 0.953745 14.8797C0.747495 14.5234 0.86937 14.0641 1.22562 13.8531C1.58187 13.6422 2.04124 13.7688 2.25218 14.125C3.04437 15.4937 4.11781 16.6844 5.39281 17.6078L8.79125 11.6594C7.98968 10.8484 7.4975 9.73281 7.4975 8.5C7.4975 6.01562 9.51312 4 11.9975 4C14.4819 4 16.4975 6.01562 16.4975 8.5C16.4975 9.73281 16.0053 10.8484 15.2037 11.6594L17.4725 15.6297C17.6787 15.9906 17.5522 16.4453 17.1912 16.6516C16.8303 16.8578 16.3756 16.7312 16.1694 16.3703L13.9803 12.5406ZM19.1694 21.6203C18.9631 21.2594 19.0897 20.8047 19.4506 20.5984C19.8116 20.3922 20.2662 20.5188 20.4725 20.8797L23.8991 26.8797C24.1053 27.2406 23.9787 27.6953 23.6178 27.9016C23.2569 28.1078 22.8022 27.9812 22.5959 27.6203L19.1694 21.6203Z" fill="white"/>
</svg>
