<svg width="24" height="25" viewBox="0 0 24 25" fill="none" xmlns="http://www.w3.org/2000/svg">
<g clip-path="url(#clip0_1075_3797)">
<path d="M22.5 12.6078C22.4953 13.2687 21.8531 14 20.7141 14H16.125C14.0531 14 12.375 15.6781 12.375 17.75C12.375 18.0125 12.4031 18.275 12.4547 18.5281C12.5906 19.175 12.8719 19.8078 13.0734 20.2625C13.1109 20.3422 13.1438 20.4172 13.1719 20.4875C13.4062 21.0312 13.4953 21.3406 13.4953 21.5891C13.4953 22.4891 12.9188 22.9766 12.4313 22.9953C12.2859 23 12.1406 23.0047 11.9953 23.0047C6.20156 23 1.5 18.2984 1.5 12.5C1.5 6.70156 6.20156 2 12 2C17.7984 2 22.5 6.70156 22.5 12.5C22.5 12.5375 22.5 12.575 22.5 12.6078ZM24 12.6219C24 12.5797 24 12.5375 24 12.4953C24 5.87187 18.6281 0.5 12 0.5C5.37188 0.5 0 5.87188 0 12.5C0 19.1281 5.37188 24.5 12 24.5C12.1641 24.5 12.3328 24.4953 12.4969 24.4906C13.9875 24.4297 15 23.0797 15 21.5844C15 20.9047 14.7141 20.2578 14.4328 19.6156C14.2312 19.1562 14.025 18.6922 13.9266 18.2141C13.8938 18.0641 13.8797 17.9094 13.8797 17.75C13.8797 16.5078 14.8875 15.5 16.1297 15.5H20.7188C22.4297 15.5 23.9859 14.3375 24.0047 12.6266L24 12.6219ZM7.125 12.5C7.125 12.2016 7.00647 11.9155 6.7955 11.7045C6.58452 11.4935 6.29837 11.375 6 11.375C5.70163 11.375 5.41548 11.4935 5.2045 11.7045C4.99353 11.9155 4.875 12.2016 4.875 12.5C4.875 12.7984 4.99353 13.0845 5.2045 13.2955C5.41548 13.5065 5.70163 13.625 6 13.625C6.29837 13.625 6.58452 13.5065 6.7955 13.2955C7.00647 13.0845 7.125 12.7984 7.125 12.5ZM7.5 9.125C7.79837 9.125 8.08452 9.00647 8.2955 8.7955C8.50647 8.58452 8.625 8.29837 8.625 8C8.625 7.70163 8.50647 7.41548 8.2955 7.2045C8.08452 6.99353 7.79837 6.875 7.5 6.875C7.20163 6.875 6.91548 6.99353 6.7045 7.2045C6.49353 7.41548 6.375 7.70163 6.375 8C6.375 8.29837 6.49353 8.58452 6.7045 8.7955C6.91548 9.00647 7.20163 9.125 7.5 9.125ZM13.125 6.5C13.125 6.20163 13.0065 5.91548 12.7955 5.7045C12.5845 5.49353 12.2984 5.375 12 5.375C11.7016 5.375 11.4155 5.49353 11.2045 5.7045C10.9935 5.91548 10.875 6.20163 10.875 6.5C10.875 6.79837 10.9935 7.08452 11.2045 7.2955C11.4155 7.50647 11.7016 7.625 12 7.625C12.2984 7.625 12.5845 7.50647 12.7955 7.2955C13.0065 7.08452 13.125 6.79837 13.125 6.5ZM16.5 9.125C16.7984 9.125 17.0845 9.00647 17.2955 8.7955C17.5065 8.58452 17.625 8.29837 17.625 8C17.625 7.70163 17.5065 7.41548 17.2955 7.2045C17.0845 6.99353 16.7984 6.875 16.5 6.875C16.2016 6.875 15.9155 6.99353 15.7045 7.2045C15.4935 7.41548 15.375 7.70163 15.375 8C15.375 8.29837 15.4935 8.58452 15.7045 8.7955C15.9155 9.00647 16.2016 9.125 16.5 9.125Z" fill="white"/>
</g>
<defs>
<clipPath id="clip0_1075_3797">
<rect width="24" height="24" fill="white" transform="translate(0 0.5)"/>
</clipPath>
</defs>
</svg>
