<svg width="61" height="61" viewBox="0 0 61 61" fill="none" xmlns="http://www.w3.org/2000/svg">
<path opacity="0.4" d="M9.28141 18.8125C9.28141 15.5802 10.5559 12.4802 12.8246 10.1946C15.0933 7.90904 18.1703 6.625 21.3786 6.625C24.587 6.625 27.664 7.90904 29.9327 10.1946C32.2013 12.4802 33.4759 15.5802 33.4759 18.8125C33.4759 22.0448 32.2013 25.1448 29.9327 27.4304C27.664 29.716 24.587 31 21.3786 31C18.1703 31 15.0933 29.716 12.8246 27.4304C10.5559 25.1448 9.28141 22.0448 9.28141 18.8125ZM0.208496 52.5471C0.208496 43.1685 7.75036 35.5703 17.0595 35.5703H25.6977C26.3026 35.5703 26.898 35.5989 27.4934 35.6655C27.4461 36.1321 27.4272 36.6082 27.4272 37.0938C27.4272 45.5107 34.1941 52.3281 42.5488 52.3281C42.5488 52.4043 42.5488 52.4709 42.5488 52.5471C42.5488 54.1086 41.2918 55.375 39.7418 55.375H3.01543C1.46547 55.375 0.208496 54.1086 0.208496 52.5471Z" fill="white"/>
<path d="M50.1096 37.113C50.1096 35.0928 49.3131 33.1554 47.8951 31.7269C46.4772 30.2984 44.5541 29.4958 42.5489 29.4958C40.5436 29.4958 38.6205 30.2984 37.2026 31.7269C35.7847 33.1554 34.9881 35.0928 34.9881 37.113C34.9881 39.1332 35.7847 41.0707 37.2026 42.4992C38.6205 43.9277 40.5436 44.7302 42.5489 44.7302C44.5541 44.7302 46.4772 43.9277 47.8951 42.4992C49.3131 41.0707 50.1096 39.1332 50.1096 37.113ZM49.3441 47.1868C47.4067 48.5198 45.0628 49.291 42.5489 49.291C35.8671 49.291 30.4517 43.8352 30.4517 37.1035C30.4517 30.3718 35.8671 24.916 42.5489 24.916C49.2307 24.916 54.6461 30.3718 54.6461 37.1035C54.6461 39.6458 53.8711 41.9976 52.5574 43.9495L60.0331 51.4905C60.9215 52.3855 60.9215 53.8328 60.0331 54.7183C59.1448 55.6038 57.7082 55.6133 56.8293 54.7183L49.3441 47.1868Z" fill="white"/>
</svg>
