<svg width="25" height="25" viewBox="0 0 25 25" fill="none" xmlns="http://www.w3.org/2000/svg">
<g clip-path="url(#clip0_1075_3214)">
<path d="M1.7 9.1C1.7 6.295 4.46375 3.7 8.3 3.7C12.1363 3.7 14.9 6.295 14.9 9.1C14.9 11.905 12.1363 14.5 8.3 14.5C7.72625 14.5 7.1525 14.4288 6.56375 14.3125C6.4325 14.2863 6.2975 14.305 6.18125 14.365C5.9525 14.4812 5.73125 14.59 5.50625 14.6913C4.44125 15.175 3.24875 15.5575 2.075 15.6663C2.63375 14.9538 3.08 14.1775 3.485 13.42C3.60875 13.1913 3.57125 12.91 3.39125 12.7225C2.375 11.6575 1.7 10.4913 1.7 9.1ZM8.3 2.5C3.99125 2.5 0.5 5.45875 0.5 9.1C0.5 10.7575 1.2425 12.1038 2.225 13.225C1.78625 14.0125 1.325 14.7475 0.74375 15.3813L0.74 15.385C0.49625 15.6475 0.4325 16.0262 0.575 16.3525C0.7175 16.6863 1.04 16.9 1.4 16.9C3.0125 16.9 4.64375 16.4012 6.00125 15.7863C6.185 15.7037 6.36125 15.6175 6.5375 15.5313C7.11125 15.6363 7.69625 15.7038 8.3 15.7038C12.6088 15.7038 16.1 12.745 16.1 9.10375C16.1 5.4625 12.6088 2.5 8.3 2.5ZM17.2775 8.51875C20.81 8.7625 23.3 11.2375 23.3 13.9C23.3 15.2913 22.625 16.4575 21.6088 17.5225C21.4288 17.71 21.3913 17.9913 21.515 18.22C21.9238 18.9775 22.3663 19.75 22.925 20.4663C21.7513 20.3538 20.555 19.9713 19.4938 19.4913C19.2688 19.39 19.0475 19.2812 18.8188 19.165C18.6988 19.105 18.5637 19.0863 18.4363 19.1125C17.8512 19.2288 17.2775 19.3 16.7 19.3C14.1425 19.3 12.065 18.1488 10.9587 16.5513C10.5463 16.6638 10.1225 16.7463 9.69125 16.8063C10.9625 18.9925 13.6213 20.5 16.7 20.5C17.3038 20.5 17.8888 20.4325 18.4625 20.3275C18.635 20.4137 18.815 20.5 18.9988 20.5825C20.3563 21.2013 21.9875 21.7 23.6 21.7C23.96 21.7 24.2825 21.4862 24.425 21.1562C24.5675 20.83 24.5 20.4475 24.26 20.1888L24.2563 20.185C23.675 19.5475 23.2138 18.8163 22.775 18.0288C23.7575 16.9075 24.5 15.5613 24.5 13.9038C24.5 10.3638 21.2075 7.4725 17.0675 7.31125C17.1725 7.70125 17.2437 8.10625 17.2775 8.5225V8.51875ZM20.7238 12.475C20.4913 12.2425 20.1088 12.2425 19.8763 12.475L17.1013 15.25L15.9237 14.0725C15.6912 13.84 15.3088 13.84 15.0763 14.0725C14.8438 14.305 14.8438 14.6875 15.0763 14.92L16.6775 16.525C16.91 16.7575 17.2925 16.7575 17.525 16.525L20.7238 13.3263C20.9563 13.0938 20.9563 12.7113 20.7238 12.4788V12.475ZM6.04625 6.40375L6.035 6.4375C5.9225 6.74875 6.0875 7.09375 6.39875 7.2025C6.71 7.31125 7.055 7.15 7.16375 6.83875L7.175 6.805C7.20875 6.70375 7.30625 6.64 7.41125 6.64H8.96C9.20375 6.64 9.39875 6.83875 9.39875 7.07875C9.39875 7.23625 9.31625 7.3825 9.1775 7.46125L8 8.13625C7.8125 8.245 7.7 8.44 7.7 8.6575V9.01375C7.7 9.34375 7.97 9.61375 8.3 9.61375C8.63 9.61375 8.9 9.34375 8.9 9.01375V9.0025L9.7775 8.5C10.2875 8.2075 10.6025 7.66375 10.6025 7.07875C10.6025 6.17125 9.8675 5.44 8.96375 5.44H7.41125C6.79625 5.44 6.24875 5.82625 6.04625 6.40375ZM9.15125 11.35C9.15898 11.2337 9.14275 11.1171 9.10357 11.0073C9.06438 10.8976 9.00307 10.797 8.92344 10.7119C8.84381 10.6268 8.74756 10.559 8.64064 10.5126C8.53372 10.4662 8.41842 10.4423 8.30188 10.4423C8.18533 10.4423 8.07003 10.4662 7.96311 10.5126C7.85619 10.559 7.75994 10.6268 7.68031 10.7119C7.60068 10.797 7.53937 10.8976 7.50019 11.0073C7.461 11.1171 7.44477 11.2337 7.4525 11.35C7.44477 11.4663 7.461 11.5829 7.50019 11.6927C7.53937 11.8024 7.60068 11.903 7.68031 11.9881C7.75994 12.0732 7.85619 12.141 7.96311 12.1874C8.07003 12.2338 8.18533 12.2577 8.30188 12.2577C8.41842 12.2577 8.53372 12.2338 8.64064 12.1874C8.74756 12.141 8.84381 12.0732 8.92344 11.9881C9.00307 11.903 9.06438 11.8024 9.10357 11.6927C9.14275 11.5829 9.15898 11.4663 9.15125 11.35Z" fill="white"/>
</g>
<defs>
<clipPath id="clip0_1075_3214">
<rect width="24" height="24" fill="white" transform="translate(0.5 0.5)"/>
</clipPath>
</defs>
</svg>
