<svg width="24" height="25" viewBox="0 0 24 25" fill="none" xmlns="http://www.w3.org/2000/svg">
<g clip-path="url(#clip0_1076_3297)">
<path d="M12 2C12.7956 2 13.5587 2.31607 14.1213 2.87868C14.6839 3.44129 15 4.20435 15 5C15 5.79565 14.6839 6.55871 14.1213 7.12132C13.5587 7.68393 12.7956 8 12 8C11.2043 8 10.4413 7.68393 9.87868 7.12132C9.31607 6.55871 9 5.79565 9 5C9 4.20435 9.31607 3.44129 9.87868 2.87868C10.4413 2.31607 11.2043 2 12 2ZM12 9.5C13.1935 9.5 14.3381 9.02589 15.182 8.18198C16.0259 7.33807 16.5 6.19347 16.5 5C16.5 3.80653 16.0259 2.66193 15.182 1.81802C14.3381 0.974106 13.1935 0.5 12 0.5C10.8065 0.5 9.66193 0.974106 8.81802 1.81802C7.97411 2.66193 7.5 3.80653 7.5 5C7.5 6.19347 7.97411 7.33807 8.81802 8.18198C9.66193 9.02589 10.8065 9.5 12 9.5ZM12 11.75C12 11.75 9.3375 9.75313 1.5 9.52344C0.675 9.49531 0 10.1703 0 11V20.75C0 21.5797 0.675 22.2453 1.5 22.2828C6.88594 22.5031 10.2609 23.8625 11.2875 24.3359C11.5125 24.4391 11.7516 24.5 11.9953 24.5C12.2391 24.5 12.4828 24.4391 12.7031 24.3359C13.7297 23.8625 17.1047 22.5031 22.4906 22.2828C23.3203 22.25 23.9906 21.5797 23.9906 20.75V11C23.9906 10.1703 23.3156 9.49531 22.4906 9.52344C14.6625 9.75313 12 11.75 12 11.75ZM11.1141 12.9594L11.25 13.0625V22.6859C9.65625 22.0391 6.35625 20.9797 1.56094 20.7828C1.5375 20.7828 1.51875 20.7734 1.50469 20.7594C1.5 20.7547 1.5 20.7547 1.5 20.75V11.0234C5.27344 11.1359 7.74375 11.675 9.22969 12.1531C9.975 12.3922 10.4812 12.6172 10.7766 12.7719C10.9266 12.8469 11.025 12.9078 11.0766 12.9406C11.0953 12.9547 11.1094 12.9641 11.1187 12.9688L11.1141 12.9594ZM12.75 13.0625L12.8859 12.9594C12.8906 12.9547 12.9047 12.9453 12.9281 12.9313C12.9797 12.8984 13.0781 12.8422 13.2281 12.7625C13.5234 12.6078 14.025 12.3828 14.775 12.1437C16.2656 11.6656 18.7359 11.1313 22.5047 11.0141V20.75V20.7547L22.5 20.7594C22.4859 20.7734 22.4672 20.7828 22.4437 20.7828C17.6437 20.9797 14.3437 22.0391 12.75 22.6859V13.0625Z" fill="white"/>
</g>
<defs>
<clipPath id="clip0_1076_3297">
<rect width="24" height="24" fill="white" transform="translate(0 0.5)"/>
</clipPath>
</defs>
</svg>
