<svg width="25" height="25" viewBox="0 0 25 25" fill="none" xmlns="http://www.w3.org/2000/svg">
<path d="M20.5002 2.16667C20.5002 1.8 20.2002 1.5 19.8335 1.5C19.4668 1.5 19.1668 1.8 19.1668 2.16667V3.83333H17.5002C17.1335 3.83333 16.8335 4.13333 16.8335 4.5C16.8335 4.86667 17.1335 5.16667 17.5002 5.16667H19.1668V6.83333C19.1668 7.2 19.4668 7.5 19.8335 7.5C20.2002 7.5 20.5002 7.2 20.5002 6.83333V5.16667H22.1668C22.5335 5.16667 22.8335 4.86667 22.8335 4.5C22.8335 4.13333 22.5335 3.83333 22.1668 3.83333H20.5002V2.16667ZM12.5002 6.5C12.1877 6.5 11.8752 6.56667 11.5918 6.69583L2.5335 10.7542C2.1085 10.9458 1.8335 11.3667 1.8335 11.8333C1.8335 12.3 2.1085 12.7208 2.5335 12.9125L11.5918 16.975C11.8793 17.1042 12.1877 17.1708 12.5002 17.1708C12.8127 17.1708 13.1252 17.1042 13.4085 16.975L22.4668 12.9125C22.8918 12.7208 23.1668 12.3 23.1668 11.8333C23.1668 11.3667 22.8918 10.9458 22.4668 10.7542L13.4085 6.69583C13.121 6.56667 12.8127 6.5 12.5002 6.5ZM12.1335 7.9125C12.2502 7.8625 12.371 7.83333 12.5002 7.83333C12.6293 7.83333 12.7502 7.85833 12.8668 7.9125L21.6168 11.8333L12.8668 15.7542C12.7502 15.8042 12.6293 15.8333 12.5002 15.8333C12.371 15.8333 12.2502 15.8083 12.1335 15.7542L3.38766 11.8333L12.1377 7.9125H12.1335ZM4.446 15.2292L2.5335 16.0875C2.1085 16.2792 1.8335 16.7 1.8335 17.1667C1.8335 17.6333 2.1085 18.0542 2.5335 18.2458L11.5918 22.3083C11.8793 22.4375 12.1877 22.5042 12.5002 22.5042C12.8127 22.5042 13.1252 22.4375 13.4085 22.3083L22.4668 18.2458C22.8918 18.0542 23.1668 17.6333 23.1668 17.1667C23.1668 16.7 22.8918 16.2792 22.4668 16.0875L20.5543 15.2292L18.9252 15.9583L21.6127 17.1667L12.8627 21.0875C12.746 21.1375 12.6252 21.1667 12.496 21.1667C12.3668 21.1667 12.246 21.1417 12.1293 21.0875L3.38766 17.1667L6.07516 15.9625L4.446 15.2292Z" fill="white"/>
</svg>
