<svg width="24" height="25" viewBox="0 0 24 25" fill="none" xmlns="http://www.w3.org/2000/svg">
<g clip-path="url(#clip0_1076_3293)">
<path d="M17.3951 1.11384C17.3482 0.865407 17.1795 0.65447 16.9451 0.556032C16.7107 0.457595 16.4435 0.48572 16.2326 0.631032L11.9998 3.55134L7.76697 0.631032C7.55603 0.48572 7.28884 0.457595 7.05447 0.556032C6.82009 0.65447 6.65134 0.865407 6.60447 1.11384L5.67166 6.17166L0.613845 7.09978C0.365407 7.14666 0.15447 7.31541 0.0560324 7.54978C-0.0424051 7.78416 -0.0142801 8.05134 0.131032 8.26228L3.05134 12.4998L0.131032 16.7326C-0.0142801 16.9435 -0.0424051 17.2107 0.0560324 17.4451C0.15447 17.6795 0.365407 17.8482 0.613845 17.8951L5.67166 18.8279L6.59978 23.8857C6.64666 24.1342 6.81541 24.3451 7.04978 24.4435C7.28416 24.542 7.55134 24.5138 7.76228 24.3685L11.9998 21.4482L16.2326 24.3685C16.4435 24.5138 16.7107 24.542 16.9451 24.4435C17.1795 24.3451 17.3482 24.1342 17.3951 23.8857L18.3279 18.8279L23.3857 17.8998C23.6342 17.8529 23.8451 17.6842 23.9435 17.4498C24.042 17.2154 24.0138 16.9482 23.8685 16.7373L20.9482 12.4998L23.8685 8.26697C24.0138 8.05603 24.042 7.78884 23.9435 7.55447C23.8451 7.32009 23.6342 7.15134 23.3857 7.10447L18.3279 6.17166L17.3951 1.11384ZM12.4263 5.07947L16.1342 2.52478L16.9498 6.95447C17.006 7.25916 17.2451 7.49822 17.5498 7.55447L21.9795 8.37009L19.4248 12.0779C19.2467 12.3357 19.2467 12.6732 19.4248 12.931L21.9795 16.6388L17.5498 17.4545C17.2451 17.5107 17.006 17.7498 16.9498 18.0545L16.1342 22.4842L12.4263 19.9295C12.1685 19.7513 11.831 19.7513 11.5732 19.9295L7.86541 22.4842L7.04978 18.0545C6.99353 17.7498 6.75447 17.5107 6.44978 17.4545L2.02478 16.6295L4.57947 12.9217C4.75759 12.6638 4.75759 12.3263 4.57947 12.0685L2.02478 8.36541L6.45447 7.54978C6.75916 7.49353 6.99822 7.25447 7.05447 6.94978L7.87009 2.52009L11.5779 5.07478C11.8357 5.25291 12.1732 5.25291 12.431 5.07478L12.4263 5.07947ZM8.16541 12.4998C8.16541 10.4748 9.75447 8.81072 11.7748 8.67478C10.8701 9.38728 10.2888 10.4888 10.2888 11.7263C10.2888 13.8826 12.0513 15.6263 14.2217 15.6263H14.2779C13.6451 16.0717 12.8717 16.3342 12.0373 16.3342C9.89509 16.3342 8.16541 14.6185 8.16541 12.4998ZM12.0373 7.16541C9.08416 7.16541 6.66541 9.54197 6.66541 12.4998C6.66541 15.4576 9.08416 17.8342 12.0373 17.8342C13.4904 17.8342 14.8076 17.2623 15.7779 16.3295C16.1951 15.931 16.2982 15.3076 16.0404 14.792C15.7826 14.2763 15.2154 13.9951 14.6482 14.0888C14.5123 14.1123 14.3717 14.1263 14.2263 14.1263C12.8717 14.1263 11.7935 13.0388 11.7935 11.7263C11.7935 10.8404 12.2857 10.0576 13.0263 9.64041C13.5279 9.35916 13.7904 8.78259 13.6685 8.21541C13.5467 7.64822 13.0685 7.23572 12.4967 7.18416C12.3467 7.17009 12.1967 7.16541 12.042 7.16541H12.0373Z" fill="white"/>
</g>
<defs>
<clipPath id="clip0_1076_3293">
<rect width="24" height="24" fill="white" transform="translate(0 0.5)"/>
</clipPath>
</defs>
</svg>
