<svg width="24" height="25" viewBox="0 0 24 25" fill="none" xmlns="http://www.w3.org/2000/svg">
<path d="M5 20.4688V3.0875C5 2.4875 5.4875 2 6.0875 2C6.35469 2 6.6125 2.09844 6.80937 2.27656L19.6531 13.6953C19.8734 13.8922 20 14.1734 20 14.4688C20 15.0406 19.5359 15.5047 18.9641 15.5047H12.5703L15.4344 21.95C15.6031 22.3297 15.4344 22.7703 15.0547 22.9391C14.675 23.1078 14.2344 22.9391 14.0656 22.5594L11.2062 16.1281L6.80937 21.1484C6.6125 21.3734 6.33125 21.5 6.03125 21.5C5.45938 21.5 5 21.0359 5 20.4688ZM6.5 3.875V19.25L10.55 14.525C10.8359 14.1922 11.2531 14 11.6891 14H17.75L6.5 3.875Z" fill="white"/>
</svg>
