<svg width="24" height="25" viewBox="0 0 24 25" fill="none" xmlns="http://www.w3.org/2000/svg">
<path d="M12 2C14.7848 2 17.4555 3.10625 19.4246 5.07538C21.3938 7.04451 22.5 9.71523 22.5 12.5C22.5 15.2848 21.3938 17.9555 19.4246 19.9246C17.4555 21.8938 14.7848 23 12 23C9.21523 23 6.54451 21.8938 4.57538 19.9246C2.60625 17.9555 1.5 15.2848 1.5 12.5C1.5 9.71523 2.60625 7.04451 4.57538 5.07538C6.54451 3.10625 9.21523 2 12 2ZM12 24.5C15.1826 24.5 18.2348 23.2357 20.4853 20.9853C22.7357 18.7348 24 15.6826 24 12.5C24 9.3174 22.7357 6.26516 20.4853 4.01472C18.2348 1.76428 15.1826 0.5 12 0.5C8.8174 0.5 5.76516 1.76428 3.51472 4.01472C1.26428 6.26516 0 9.3174 0 12.5C0 15.6826 1.26428 18.7348 3.51472 20.9853C5.76516 23.2357 8.8174 24.5 12 24.5ZM11.25 7.25C11.25 7.05109 11.329 6.86032 11.4697 6.71967C11.6103 6.57902 11.8011 6.5 12 6.5C12.1989 6.5 12.3897 6.57902 12.5303 6.71967C12.671 6.86032 12.75 7.05109 12.75 7.25C12.75 7.44891 12.671 7.63968 12.5303 7.78033C12.3897 7.92098 12.1989 8 12 8C11.8011 8 11.6103 7.92098 11.4697 7.78033C11.329 7.63968 11.25 7.44891 11.25 7.25ZM14.25 7.25C14.25 6.65326 14.0129 6.08097 13.591 5.65901C13.169 5.23705 12.5967 5 12 5C11.4033 5 10.831 5.23705 10.409 5.65901C9.98705 6.08097 9.75 6.65326 9.75 7.25C9.75 7.84674 9.98705 8.41903 10.409 8.84099C10.831 9.26295 11.4033 9.5 12 9.5C12.5967 9.5 13.169 9.26295 13.591 8.84099C14.0129 8.41903 14.25 7.84674 14.25 7.25ZM6.07969 9.9125C5.89219 10.2828 6.04687 10.7328 6.41719 10.9203L7.40625 11.4125C8.15625 11.7875 8.94375 12.0688 9.75469 12.2469V15.4203L9.01875 19.0953C8.93906 19.5031 9.20156 19.8969 9.60938 19.9766C10.0172 20.0562 10.4109 19.7937 10.4906 19.3859L11.1141 16.25H12.8859L13.5141 19.3953C13.5937 19.8031 13.9922 20.0656 14.3953 19.9859C14.7984 19.9062 15.0656 19.5078 14.9859 19.1047L14.25 15.425V12.2516C15.0609 12.0687 15.8484 11.7875 16.5984 11.4172L17.5875 10.925C17.9578 10.7375 18.1078 10.2875 17.925 9.91719C17.7422 9.54688 17.2875 9.39687 16.9172 9.57969L15.9281 10.0719C14.7094 10.6812 13.3641 11 12 11C10.6359 11 9.29062 10.6812 8.07187 10.0719L7.08281 9.57969C6.7125 9.39219 6.2625 9.54688 6.075 9.91719L6.07969 9.9125ZM11.25 12.4719C11.4984 12.4906 11.7516 12.5 12 12.5C12.2484 12.5 12.5016 12.4906 12.75 12.4719V14.75H11.25V12.4719Z" fill="white"/>
</svg>
