<svg width="24" height="29" viewBox="0 0 24 29" fill="none" xmlns="http://www.w3.org/2000/svg">
<path d="M8.66625 6C7.85625 6 7.2 6.65625 7.2 7.46625C7.2 7.83 7.335 8.1825 7.5825 8.4525L13.2 14.6325V18.2962C13.2 18.6787 13.3838 19.0425 13.695 19.2675L16.6875 21.4425C16.83 21.5437 16.9988 21.6 17.175 21.6C17.6325 21.6 18 21.2287 18 20.775V14.6325L23.6175 8.4525C23.8612 8.1825 24 7.83 24 7.46625C24 6.65625 23.3438 6 22.5338 6H8.66625ZM8.4 7.46625C8.4 7.32 8.52 7.2 8.66625 7.2H22.5338C22.68 7.2 22.8 7.32 22.8 7.46625C22.8 7.53375 22.7738 7.5975 22.7325 7.64625L16.9575 13.9987C16.8563 14.1075 16.8 14.2537 16.8 14.4037V20.0437L14.4 18.3V14.4C14.4 14.25 14.3438 14.1075 14.2425 13.995L8.4675 7.6425C8.4225 7.59375 8.4 7.53 8.4 7.4625V7.46625ZM6.16875 8.4H1.46625C0.65625 8.4 0 9.05625 0 9.86625C0 10.23 0.135 10.5825 0.3825 10.8525L6 17.0325V19.4962C6 19.8787 6.18375 20.2425 6.495 20.4675L9.4875 22.6425C9.63 22.7437 9.79875 22.8 9.975 22.8C10.4325 22.8 10.8 22.4287 10.8 21.975V17.0325L12 15.7125V15.0975L11.4675 14.5125L9.75375 16.3987C9.6525 16.5075 9.59625 16.6537 9.59625 16.8038V21.2437L7.19625 19.5V16.8038C7.19625 16.6537 7.14 16.5112 7.03875 16.3987L1.2675 10.0425C1.2225 9.99375 1.2 9.93 1.2 9.8625C1.2 9.71625 1.32 9.59625 1.46625 9.59625H7.005L6.69375 9.255C6.465 9.00375 6.28875 8.71125 6.16875 8.39625V8.4Z" fill="white"/>
</svg>
