<svg width="24" height="25" viewBox="0 0 24 25" fill="none" xmlns="http://www.w3.org/2000/svg">
<g clip-path="url(#clip0_1124_8519)">
<path d="M23.803 2.24356C24.0795 2.54825 24.0608 3.02638 23.7514 3.30294L15.5014 10.8029C15.2061 11.0701 14.7514 11.0608 14.4655 10.7795L8.92485 5.23419L1.19048 10.8545C0.857664 11.0983 0.384226 11.0233 0.140476 10.6904C-0.103274 10.3576 -0.0282739 9.88419 0.304539 9.64044L8.55454 3.64044C8.85454 3.42481 9.26704 3.45763 9.52485 3.71544L15.0233 9.21388L22.7436 2.19669C23.0483 1.92013 23.5264 1.93888 23.803 2.24825V2.24356ZM3.74985 20.7498V17.7498C3.74985 17.3373 3.41235 16.9998 2.99985 16.9998C2.58735 16.9998 2.24985 17.3373 2.24985 17.7498V20.7498C2.24985 21.1623 2.58735 21.4998 2.99985 21.4998C3.41235 21.4998 3.74985 21.1623 3.74985 20.7498ZM2.99985 15.4998C4.24204 15.4998 5.24985 16.5076 5.24985 17.7498V20.7498C5.24985 21.992 4.24204 22.9998 2.99985 22.9998C1.75766 22.9998 0.749851 21.992 0.749851 20.7498V17.7498C0.749851 16.5076 1.75766 15.4998 2.99985 15.4998ZM9.74985 13.2498C9.74985 12.8373 9.41235 12.4998 8.99985 12.4998C8.58735 12.4998 8.24985 12.8373 8.24985 13.2498V20.7498C8.24985 21.1623 8.58735 21.4998 8.99985 21.4998C9.41235 21.4998 9.74985 21.1623 9.74985 20.7498V13.2498ZM6.74985 13.2498C6.74985 12.0076 7.75766 10.9998 8.99985 10.9998C10.242 10.9998 11.2499 12.0076 11.2499 13.2498V20.7498C11.2499 21.992 10.242 22.9998 8.99985 22.9998C7.75766 22.9998 6.74985 21.992 6.74985 20.7498V13.2498ZM15.7499 20.7498V16.2498C15.7499 15.8373 15.4124 15.4998 14.9999 15.4998C14.5874 15.4998 14.2499 15.8373 14.2499 16.2498V20.7498C14.2499 21.1623 14.5874 21.4998 14.9999 21.4998C15.4124 21.4998 15.7499 21.1623 15.7499 20.7498ZM14.9999 13.9998C16.242 13.9998 17.2499 15.0076 17.2499 16.2498V20.7498C17.2499 21.992 16.242 22.9998 14.9999 22.9998C13.7577 22.9998 12.7499 21.992 12.7499 20.7498V16.2498C12.7499 15.0076 13.7577 13.9998 14.9999 13.9998ZM21.7499 13.2498C21.7499 12.8373 21.4124 12.4998 20.9999 12.4998C20.5874 12.4998 20.2499 12.8373 20.2499 13.2498V20.7498C20.2499 21.1623 20.5874 21.4998 20.9999 21.4998C21.4124 21.4998 21.7499 21.1623 21.7499 20.7498V13.2498ZM18.7499 13.2498C18.7499 12.0076 19.7577 10.9998 20.9999 10.9998C22.242 10.9998 23.2499 12.0076 23.2499 13.2498V20.7498C23.2499 21.992 22.242 22.9998 20.9999 22.9998C19.7577 22.9998 18.7499 21.992 18.7499 20.7498V13.2498Z" fill="white"/>
</g>
<defs>
<clipPath id="clip0_1124_8519">
<rect width="24" height="24" fill="white" transform="translate(0 0.5)"/>
</clipPath>
</defs>
</svg>
