<svg width="60" height="60" viewBox="0 0 60 60" fill="none" xmlns="http://www.w3.org/2000/svg">
<g clip-path="url(#clip0_1555_2472)">
<path opacity="0.4" d="M9.07292 18.1875C9.07292 14.9552 10.3474 11.8552 12.6161 9.56964C14.8848 7.28404 17.9618 6 21.1701 6C24.3785 6 27.4555 7.28404 29.7242 9.56964C31.9928 11.8552 33.2674 14.9552 33.2674 18.1875C33.2674 21.4198 31.9928 24.5198 29.7242 26.8054C27.4555 29.091 24.3785 30.375 21.1701 30.375C17.9618 30.375 14.8848 29.091 12.6161 26.8054C10.3474 24.5198 9.07292 21.4198 9.07292 18.1875ZM0 51.9221C0 42.5435 7.54186 34.9453 16.8511 34.9453H25.4892C26.0941 34.9453 26.6895 34.9739 27.2849 35.0405C27.2377 35.5071 27.2188 35.9832 27.2188 36.4688C27.2188 44.8857 33.9856 51.7031 42.3403 51.7031C42.3403 51.7793 42.3403 51.8459 42.3403 51.9221C42.3403 53.4836 41.0833 54.75 39.5333 54.75H2.80693C1.25698 54.75 0 53.4836 0 51.9221Z" fill="#2A80BF"/>
<path d="M49.9012 36.488C49.9012 34.4678 49.1046 32.5304 47.6867 31.1019C46.2687 29.6734 44.3456 28.8708 42.3404 28.8708C40.3351 28.8708 38.412 29.6734 36.9941 31.1019C35.5762 32.5304 34.7796 34.4678 34.7796 36.488C34.7796 38.5082 35.5762 40.4457 36.9941 41.8742C38.412 43.3027 40.3351 44.1052 42.3404 44.1052C44.3456 44.1052 46.2687 43.3027 47.6867 41.8742C49.1046 40.4457 49.9012 38.5082 49.9012 36.488ZM49.1356 46.5618C47.1982 47.8948 44.8543 48.666 42.3404 48.666C35.6586 48.666 30.2432 43.2102 30.2432 36.4785C30.2432 29.7468 35.6586 24.291 42.3404 24.291C49.0222 24.291 54.4376 29.7468 54.4376 36.4785C54.4376 39.0208 53.6626 41.3726 52.3489 43.3245L59.8247 50.8655C60.713 51.7605 60.713 53.2078 59.8247 54.0933C58.9363 54.9788 57.4997 54.9883 56.6208 54.0933L49.1356 46.5618Z" fill="#2A80BF"/>
</g>
<defs>
<clipPath id="clip0_1555_2472">
<rect width="60" height="60" fill="white"/>
</clipPath>
</defs>
</svg>
