<svg width="63" height="63" viewBox="0 0 63 63" fill="none" xmlns="http://www.w3.org/2000/svg">
<g clip-path="url(#clip0_1555_2422)">
<path opacity="0.4" d="M22.7 31.8C25.9887 31.8 29.1427 30.4936 31.4681 28.1681C33.7936 25.8427 35.1 22.6887 35.1 19.4C35.1 16.1113 33.7936 12.9573 31.4681 10.6319C29.1427 8.30642 25.9887 7 22.7 7C19.4113 7 16.2573 8.30642 13.9319 10.6319C11.6064 12.9573 10.3 16.1113 10.3 19.4C10.3 22.6887 11.6064 25.8427 13.9319 28.1681C16.2573 30.4936 19.4113 31.8 22.7 31.8ZM13.4 37.1475C6.23125 39.2497 1 45.8759 1 53.7228C1 55.3116 2.28844 56.6 3.87719 56.6H41.5228C43.1116 56.6 44.4 55.3116 44.4 53.7228C44.4 45.8759 39.1688 39.2497 32 37.1475V42.0687C34.6738 42.7566 36.65 45.1881 36.65 48.075V51.95C36.65 52.8025 35.9525 53.5 35.1 53.5H33.55C32.6975 53.5 32 52.8025 32 51.95C32 51.0975 32.6975 50.4 33.55 50.4V48.075C33.55 46.3603 32.1647 44.975 30.45 44.975C28.7353 44.975 27.35 46.3603 27.35 48.075V50.4C28.2025 50.4 28.9 51.0975 28.9 51.95C28.9 52.8025 28.2025 53.5 27.35 53.5H25.8C24.9475 53.5 24.25 52.8025 24.25 51.95V48.075C24.25 45.1881 26.2263 42.7566 28.9 42.0687V36.5372C28.3188 36.4791 27.7278 36.45 27.1272 36.45H18.2728C17.6722 36.45 17.0813 36.4791 16.5 36.5372V42.8728C18.7378 43.5412 20.375 45.6144 20.375 48.075C20.375 51.0684 17.9434 53.5 14.95 53.5C11.9566 53.5 9.525 51.0684 9.525 48.075C9.525 45.6144 11.1622 43.5412 13.4 42.8728V37.1475ZM14.95 50.4C15.5666 50.4 16.158 50.155 16.594 49.719C17.03 49.283 17.275 48.6916 17.275 48.075C17.275 47.4584 17.03 46.867 16.594 46.431C16.158 45.995 15.5666 45.75 14.95 45.75C14.3334 45.75 13.742 45.995 13.306 46.431C12.87 46.867 12.625 47.4584 12.625 48.075C12.625 48.6916 12.87 49.283 13.306 49.719C13.742 50.155 14.3334 50.4 14.95 50.4Z" fill="#2A80BF"/>
<path d="M38.2002 11.65C38.2002 9.08281 40.283 7 42.8502 7H58.3502C60.9174 7 63.0002 9.08281 63.0002 11.65V24.05C63.0002 26.6172 60.9174 28.7 58.3502 28.7H53.7002L45.6402 34.745C45.4077 34.9194 45.088 34.9484 44.8264 34.8225C44.5649 34.6966 44.4002 34.4253 44.4002 34.125V28.7H42.8502C40.283 28.7 38.2002 26.6172 38.2002 24.05V11.65Z" fill="#2A80BF"/>
<path d="M18.5 36.4999C14.5533 36.4999 11.5338 37.6589 9.68646 38.7516C8.51383 39.4452 7.91803 40.7376 7.76757 42.0917L7.54977 44.052C7.51664 44.3502 7.46118 44.6454 7.38388 44.9353L6.24217 49.2167C5.78283 50.9393 6.27617 52.776 7.53674 54.0366C8.47365 54.9735 9.74437 55.4999 11.0694 55.4999H26.5L33.6895 54.8152C35.7489 54.619 37.562 53.3758 38.4872 51.5255L38.6938 51.1122C39.5184 49.4631 39.549 47.5225 38.6976 45.8872C36.9763 42.5812 34.5422 38.4252 33 37.4999C30.5 35.9999 25.5 36.4999 18.5 36.4999Z" fill="#AACCE5"/>
</g>
<defs>
<clipPath id="clip0_1555_2422">
<rect width="62" height="49.6" fill="white" transform="translate(1 7)"/>
</clipPath>
</defs>
</svg>
